<svg width="24" height="24" viewBox="0 0 24 24" xmlns="http://www.w3.org/2000/svg">
    <g fill="none" fill-rule="evenodd">
        <path d="M0 0h24v24H0z"/>
        <path d="M17 10c3.314 0 6 2.35 6 5.25 0 1.45-.672 2.764-1.76 3.714v2.12l-2.368-.844A6.782 6.782 0 0 1 17 20.5c-3.314 0-6-2.35-6-5.25S13.686 10 17 10zM8 3c3.677 0 6.692 2.531 6.978 5.749-3.16.794-5.478 3.404-5.478 6.501l.003.106a7.837 7.837 0 0 1-3.092-.018l-2.847 1.173-.001-2.427C1.998 12.938 1 11.198 1 9.25 1 5.798 4.134 3 8 3zm6.75 10.125a.821.821 0 0 0-.809.833c0 .46.362.834.809.834a.821.821 0 0 0 .809-.834.821.821 0 0 0-.809-.833zm4.206 0a.821.821 0 0 0-.809.833c0 .46.362.834.809.834a.821.821 0 0 0 .809-.834.821.821 0 0 0-.81-.833zM5.4 6.5a.9.9 0 1 0 0 1.8.9.9 0 0 0 0-1.8zm5 0a.9.9 0 1 0 0 1.8.9.9 0 0 0 0-1.8z" fill="#FFF"/>
    </g>
</svg>
