<svg width="16" height="16" viewBox="0 0 16 16" xmlns="http://www.w3.org/2000/svg">
    <g fill="none" fill-rule="evenodd">
        <path d="M0 0h16v16H0z"/>
        <circle stroke="#000" cx="8" cy="8" r="6.5"/>
        <path d="M8.501 9.438V9.3c0-.236.05-.442.147-.638.089-.177.217-.344.393-.492.472-.412.757-.678.845-.776.236-.314.364-.717.364-1.208 0-.6-.197-1.071-.59-1.415-.393-.354-.913-.521-1.552-.521-.727 0-1.297.206-1.72.619-.432.413-.638.983-.638 1.71h1.12c0-.413.079-.737.246-.963.186-.275.491-.403.923-.403.334 0 .6.088.786.275.177.187.275.442.275.766 0 .246-.088.482-.265.698l-.118.138c-.638.57-1.022.982-1.15 1.247-.137.266-.196.59-.196.963v.138h1.13zM7.92 11.75a.735.735 0 0 0 .755-.755.744.744 0 0 0-.213-.536.758.758 0 0 0-.542-.209.735.735 0 0 0-.532.209.706.706 0 0 0-.213.536c0 .219.067.397.213.536.145.14.319.219.532.219z" fill="#000" fill-rule="nonzero"/>
    </g>
</svg>
