<?xml version="1.0" standalone="no"?><!DOCTYPE svg PUBLIC "-//W3C//DTD SVG 1.1//EN" "http://www.w3.org/Graphics/SVG/1.1/DTD/svg11.dtd"><svg t="1736394034367" class="icon" viewBox="0 0 1024 1024" version="1.1" xmlns="http://www.w3.org/2000/svg" p-id="3552" width="128" height="128" xmlns:xlink="http://www.w3.org/1999/xlink"><path d="M899.6 678.5c-17.7 0-32-14.3-32-32 0-38.4-31.3-69.7-69.7-69.7-23.6 0-45.4 11.8-58.4 31.6-5.9 9-16 14.5-26.8 14.5s-20.9-5.4-26.8-14.5c-13-19.8-34.8-31.6-58.4-31.6-38.4 0-69.7 31.3-69.7 69.7 0 17.7-14.3 32-32 32s-32-14.3-32-32c0-73.7 60-133.7 133.7-133.7 31.6 0 61.5 11 85.1 30.6 23.6-19.5 53.5-30.6 85.1-30.6 73.7 0 133.7 60 133.7 133.7 0.2 17.7-14.1 32-31.8 32zM713.8 927.6c-5.7 0-11.5-1.5-16.7-4.7-7.7-4.7-187.7-117-203-273.2-1.7-17.6 11.1-33.2 28.7-35 17.6-1.7 33.2 11.1 35 28.7 12.2 124.5 171.2 224 172.8 225 15 9.3 19.7 29 10.5 44-6 9.8-16.5 15.2-27.3 15.2z m-0.6 0c-10.8 0-21.3-5.4-27.3-15.3-9.2-15.1-4.5-34.8 10.5-44 2.2-1.3 160.7-100.7 172.8-225 1.7-17.6 17.4-30.5 35-28.7 17.6 1.7 30.5 17.4 28.7 35-15.3 156.2-195.3 268.5-203 273.2-5.2 3.3-11 4.8-16.7 4.8z m-22.6-583.4H261.2c-19.3 0-34.9-14.3-34.9-32s15.6-32 34.9-32h429.3c19.3 0 34.9 14.3 34.9 32s-15.5 32-34.8 32zM443.7 535.3H264.2c-21 0-37.9-14.3-37.9-32s16.9-32 37.9-32h179.4c21 0 37.9 14.3 37.9 32s-16.9 32-37.8 32z m-52.4 200.9H265c-22.5 0-38.7-14.3-38.7-32s16.2-32 38.7-32h126.3c22.5 0 38.7 14.3 38.7 32s-16.2 32-38.7 32z m145.1 191.2h-406c-17.7 0-32-14.3-32-32V127.8c0-17.7 14.3-32 32-32h690.9c17.7 0 32 14.3 32 32v289.5c0 17.7-14.3 32-32 32s-32-14.3-32-32V159.8H162.4v703.6h374c17.7 0 32 14.3 32 32s-14.3 32-32 32z" p-id="3553" fill="#e6e6e6"></path></svg>