<?xml version="1.0" standalone="no"?><!DOCTYPE svg PUBLIC "-//W3C//DTD SVG 1.1//EN" "http://www.w3.org/Graphics/SVG/1.1/DTD/svg11.dtd"><svg t="1736153384878" class="icon" viewBox="0 0 1024 1024" version="1.1" xmlns="http://www.w3.org/2000/svg" p-id="7634" width="32" height="32" xmlns:xlink="http://www.w3.org/1999/xlink"><path d="M825.1 804.7H473.3c-52 0-94.6-42.6-94.6-94.6v-444c0-52 42.6-94.6 94.6-94.6h351.8c52 0 94.6 42.6 94.6 94.6v444c0 52-42.5 94.6-94.6 94.6z" fill="#bfbfbf" p-id="7635"></path><path d="M517.3 957.6H199.6c-55.3 0-100.3-45-100.3-100.3V165.2c0-55.3 45-100.3 100.3-100.3h504.1c55.3 0 100.3 45 100.3 100.3v464.7c0 16.6-13.4 30-30 30s-30-13.4-30-30V165.2c0-22.2-18.1-40.3-40.3-40.3H199.6c-22.2 0-40.3 18.1-40.3 40.3v692.1c0 22.2 18.1 40.3 40.3 40.3h317.7c16.6 0 30 13.4 30 30s-13.4 30-30 30z" fill="#bfbfbf" p-id="7636"></path><path d="M581.6 226.8H261c-16.5 0-30 13.5-30 30s13.5 30 30 30h320.6c16.5 0 30-13.5 30-30s-13.5-30-30-30zM423 358.8H261c-16.5 0-30 13.5-30 30s13.5 30 30 30h162c16.5 0 30-13.5 30-30s-13.5-30-30-30zM512.4 510.1c35.4 0 68.7 13.8 93.7 38.8 25 25 38.8 58.3 38.8 93.7 0 35.4-13.8 68.7-38.8 93.7-25 25-58.3 38.8-93.7 38.8-35.4 0-68.7-13.8-93.7-38.8-25-25-38.8-58.3-38.8-93.7 0-35.4 13.8-68.7 38.8-93.7 25.1-25.1 58.3-38.8 93.7-38.8m0-60c-106.3 0-192.5 86.2-192.5 192.5s86.2 192.5 192.5 192.5 192.5-86.2 192.5-192.5c0.1-106.3-86.1-192.5-192.5-192.5z" fill="#bfbfbf" p-id="7637"></path><path d="M780.1 958.4c-7.6 0-15.3-2.9-21.1-8.7L596.5 788.3c-11.8-11.7-11.8-30.7-0.1-42.4 11.7-11.8 30.7-11.8 42.4-0.1l162.5 161.4c11.8 11.7 11.8 30.7 0.1 42.4-5.9 5.9-13.6 8.8-21.3 8.8z" fill="#bfbfbf" p-id="7638"></path></svg>