<?xml version="1.0" standalone="no"?><!DOCTYPE svg PUBLIC "-//W3C//DTD SVG 1.1//EN" "http://www.w3.org/Graphics/SVG/1.1/DTD/svg11.dtd"><svg t="1736153316988" class="icon" viewBox="0 0 1024 1024" version="1.1" xmlns="http://www.w3.org/2000/svg" p-id="5557" width="32" height="32" xmlns:xlink="http://www.w3.org/1999/xlink"><path d="M288.384 994.496c-51.2 0-96-44.8-96-96v-774.4c0-57.6 44.8-96 96-96h454.4c44.8 0 89.6 38.4 89.6 96v780.8c0 51.2-44.8 96-96 96l-448-6.4z m-38.4-89.6c0 19.2 12.8 32 32 32h454.4c19.2 0 32-12.8 32-32v-89.6h-518.4v89.6z m524.8-147.2v-544h-524.8v544h524.8z m0-608v-25.6c0-19.2-12.8-32-32-32h-454.4c-19.2 0-32 12.8-32 32v32h518.4z" fill="#bfbfbf" p-id="5558"></path><path d="M429.184 136.896h160c6.4 0 12.8-6.4 12.8-12.8s0-19.2-12.8-19.2h-160c-6.4 0-12.8 6.4-12.8 12.8s6.4 19.2 12.8 19.2zM454.784 879.296c0 32 25.6 57.6 57.6 57.6s57.6-25.6 57.6-57.6-25.6-57.6-57.6-57.6-57.6 25.6-57.6 57.6z" fill="#bfbfbf" p-id="5559"></path></svg>