<svg width="112" height="60" viewBox="0 0 112 60" xmlns="http://www.w3.org/2000/svg">
    <defs>
        <linearGradient x1="96.178%" y1="50%" x2="0%" y2="50%" id="xuab0gdkka">
            <stop stop-color="#FFF" stop-opacity="0" offset="0%"/>
            <stop stop-color="#FFF" offset="100%"/>
        </linearGradient>
        <linearGradient x1="37.206%" y1="24.487%" x2="37.206%" y2="100%" id="2dhum09lqb">
            <stop offset="0%"/>
            <stop stop-opacity="0" offset="100%"/>
        </linearGradient>
    </defs>
    <g fill="none" fill-rule="evenodd">
        <path fill="url(#xuab0gdkka)" opacity=".8" d="M11 4h60v12H11z" transform="translate(37 3)"/>
        <g transform="translate(37 3)">
            <circle stroke="#FFF" stroke-width="2" fill="#000" cx="11" cy="10" r="10"/>
            <path d="M10.742 43.213c-.631-1.034-1.737-2.924-3.317-5.669-2.37-4.118-3.467-7.719-5.296-11.872-1.83-4.152-2.834-5.963-1.13-7.32 1.705-1.357 3.587-.936 5.135.375 1.032.875 1.71 2.223 2.031 4.045V3.253A3.247 3.247 0 0 1 11.407 0a3.247 3.247 0 0 1 3.241 3.253V14.04a3.247 3.247 0 0 1 3.242-3.253 3.247 3.247 0 0 1 3.241 3.253v2.086a3.247 3.247 0 0 1 3.242-3.253 3.247 3.247 0 0 1 3.241 3.253v1.96l.005-.158a2.662 2.662 0 0 1 2.653-2.499 2.662 2.662 0 0 1 2.657 2.667v12.195c0 2.603-1.551 6.257-2.897 8.747-.896 1.661-1.702 3.053-2.418 4.175H10.742z" fill="url(#2dhum09lqb)" transform="translate(0 10.787)"/>
            <g stroke="#FFF" stroke-width="2">
                <path d="M10.742 53.89s-4.28-6.709-5.303-9.33c-1.024-2.623-3.245-7.978-3.842-9.358C1 33.822-1.297 30.818 1 29.139c2.296-1.68 4.38-.332 5.134.375.463.434.874 1.047 1.283 1.756.41.709.748 2.29.748 2.29" stroke-linecap="round"/>
                <path d="M8.165 33.56V14.04a3.247 3.247 0 0 1 3.242-3.253 3.247 3.247 0 0 1 3.241 3.253v14.843"/>
                <path d="M14.648 28.883v-4.056a3.247 3.247 0 0 1 3.242-3.253 3.247 3.247 0 0 1 3.241 3.253v4.056"/>
                <path d="M21.131 28.883v-1.97a3.247 3.247 0 0 1 3.242-3.254 3.247 3.247 0 0 1 3.241 3.254v3.584"/>
                <path d="M27.614 30.5v-1.617a2.662 2.662 0 0 1 2.658-2.667 2.662 2.662 0 0 1 2.657 2.667v12.195c0 2.603-1.551 6.257-2.897 8.747-.896 1.66-1.702 3.052-2.418 4.175" stroke-linecap="round"/>
            </g>
        </g>
    </g>
</svg>
