<svg width="24" height="24" viewBox="0 0 24 24" xmlns="http://www.w3.org/2000/svg">
    <g fill="none" fill-rule="evenodd">
        <path d="M0 0h24v24H0z"/>
        <g fill="#FFF">
            <path d="m16 5 .116.007A1 1 0 0 1 17 6v4.083a6 6 0 0 0-6.455 8.418L6 18.5a1 1 0 0 1-1-1V6.01a1 1 0 0 1 1-1L15.999 5zm-5.5 5.2H7V12h3.5v-1.8zM15 7H7v1.8h8V7z" fill-rule="nonzero"/>
            <path d="M16 11.75a4.25 4.25 0 1 1 0 8.5 4.25 4.25 0 0 1 0-8.5zm.616 1.25a.122.122 0 0 0-.11.047l-2.481 3.28c-.04.054-.03.13.023.17l.035.019a.122.122 0 0 0 .039.006H15.5l-.226 2.35a.122.122 0 0 0 .218.086l2.482-3.28a.122.122 0 0 0-.023-.171l-.035-.018a.122.122 0 0 0-.039-.007h-1.38l.227-2.35a.122.122 0 0 0-.11-.133z"/>
        </g>
    </g>
</svg>
